<svg id="Layer_1" height="512" viewBox="0 0 64 64" width="512" xmlns="http://www.w3.org/2000/svg" data-name="Layer 1"><g fill="#4370ff"><path d="m32 36a6.62 6.62 0 1 1 6.62-6.62 6.63 6.63 0 0 1 -6.62 6.62z"/><circle cx="57.82" cy="37.8" r="4.18"/><circle cx="32" cy="56.82" r="4.18"/><circle cx="16.04" cy="7.18" r="4.18"/><circle cx="6.18" cy="37.8" r="4.18"/><circle cx="47.96" cy="7.18" r="4.18"/></g><path d="m57.82 31.62a6.16 6.16 0 0 0 -4.93 2.47l-4.59-1.49a16 16 0 0 0 .32-3.19 16.54 16.54 0 0 0 -5.34-12.17l2.94-4.14a6.2 6.2 0 1 0 -3.22-2.32l-2.9 4.1a16.47 16.47 0 0 0 -8-2.09 16.8 16.8 0 0 0 -4.23.56l2.52 3.57a12.08 12.08 0 0 1 1.61-.13 12.61 12.61 0 0 1 9.61 20.78 9.85 9.85 0 0 0 -3.16-2.47 8.54 8.54 0 0 0 2.17-5.69 8.62 8.62 0 1 0 -17.24 0 8.54 8.54 0 0 0 2.17 5.69 9.85 9.85 0 0 0 -3.16 2.47 12.59 12.59 0 0 1 3.89-19.4c-.13-.17-5.55-7.83-5.23-7.39a6.16 6.16 0 1 0 -3.27 2.32l2.93 4.14a16.55 16.55 0 0 0 -5.33 12.17 16 16 0 0 0 .32 3.19l-4.59 1.49a6.17 6.17 0 1 0 1.24 3.81l4.59-1.5a16.67 16.67 0 0 0 13.06 9.5v5.1a6.18 6.18 0 1 0 4 0v-5.1a16.67 16.67 0 0 0 13.06-9.5l4.59 1.5a6.18 6.18 0 1 0 6.17-6.28zm-9.82-26.62a2.18 2.18 0 1 1 -2.18 2.18 2.19 2.19 0 0 1 2.18-2.18zm-32 4.35a2.18 2.18 0 1 1 2.18-2.17 2.18 2.18 0 0 1 -2.18 2.17zm-9.82 30.65a2.18 2.18 0 1 1 2.17-2.2 2.18 2.18 0 0 1 -2.17 2.2zm25.82-15.21a4.62 4.62 0 1 1 -4.62 4.62 4.62 4.62 0 0 1 4.62-4.62zm2.18 32a2.18 2.18 0 1 1 -2.18-2.14 2.19 2.19 0 0 1 2.18 2.17zm-2.18-14.79a12.49 12.49 0 0 1 -6.57-1.87 6 6 0 0 1 4.57-2.13h4a6 6 0 0 1 4.57 2.13 12.49 12.49 0 0 1 -6.57 1.87zm25.82-2a2.18 2.18 0 1 1 2.18-2.2 2.17 2.17 0 0 1 -2.18 2.2z"/></svg>